<svg width="120" height="292" viewBox="0 0 120 292" fill="none" xmlns="http://www.w3.org/2000/svg">
<rect width="120" height="292" rx="60" fill="#284274"/>
<path d="M0 60C0 26.8629 26.8629 0 60 0V0C93.1371 0 120 26.8629 120 60V140H0V60Z" fill="#70BED0"/>
<path d="M24.8548 185.673C34.0953 198.333 45.8104 206.442 60 210C74.1937 206.446 85.9088 198.339 95.1453 185.679C104.382 173.02 109 158.963 109 143.51V106.3L60 88L11 106.3V143.51C10.9959 158.959 15.6142 173.014 24.8548 185.673Z" fill="url(#paint0_linear_248_301)"/>
<path d="M48.552 170V118.8H60.104C64.0933 118.8 66.9733 119.6 68.744 121.2C70.536 122.8 71.4853 125.456 71.592 129.168C71.6773 131.493 71.72 133.605 71.72 135.504C71.72 137.403 71.6773 139.397 71.592 141.488C71.464 145.179 70.504 147.835 68.712 149.456C66.9413 151.056 64.0613 151.856 60.072 151.856H55.88V170H48.552ZM55.88 145.36H60.072C61.5227 145.36 62.568 145.072 63.208 144.496C63.848 143.92 64.2 143.035 64.264 141.84C64.3493 140.496 64.4027 139.109 64.424 137.68C64.4453 136.251 64.4453 134.8 64.424 133.328C64.4027 131.835 64.3493 130.331 64.264 128.816C64.2213 127.6 63.8693 126.715 63.208 126.16C62.568 125.584 61.5333 125.296 60.104 125.296H55.88V145.36Z" fill="#284274"/>
<path d="M48.5 14L46.067 14.8715C27.433 21.5464 15 39.2066 15 59M15 73.5V85.5" stroke="white" stroke-width="4" stroke-linecap="round"/>
<path d="M65 196.5L67.433 195.628C86.067 188.954 98.5 171.293 98.5 151.5L98.5 137V125" stroke="#284274" stroke-width="4" stroke-linecap="round"/>
<path d="M71 281.5L73.433 280.628C92.067 273.954 104.5 256.293 104.5 236.5M104.5 222V210" stroke="white" stroke-width="4" stroke-linecap="round"/>
<defs>
<linearGradient id="paint0_linear_248_301" x1="7.5" y1="105" x2="90.5" y2="194" gradientUnits="userSpaceOnUse">
<stop stop-color="white"/>
<stop offset="1" stop-color="#F3F3F3"/>
</linearGradient>
</defs>
</svg>
